STARTFONT 2.1
FONT -unixpc-system-medium-r-normal-12-120-100-100-m-100-iso8859-1
SIZE 16 108 108
FONTBOUNDINGBOX 9 24 0 -4
STARTPROPERTIES 13
ADD_STYLE_NAME ""
AVERAGE_WIDTH 90
DEFAULT_CHAR 127
FONT_ASCENT 20
FONT_DESCENT 4
PIXEL_SIZE 24
POINT_SIZE 160
RESOLUTION_X 108
RESOLUTION_Y 108
SETWIDTH_NAME "Normal"
SLANT "r"
SPACING "c"
WEIGHT_NAME "Medium"
ENDPROPERTIES
CHARS 96
STARTCHAR ASCII CHARACTER  
ENCODING 32
SWIDTH 375 0
DWIDTH 9 0
BBX 9 24 0 -4
BITMAP
0000
0000
0000
0000
0000
0000
0000
0000
0000
0000
0000
0000
0000
0000
0000
0000
0000
0000
0000
0000
0000
0000
0000
0000
ENDCHAR
STARTCHAR ASCII CHARACTER !
ENCODING 33
SWIDTH 375 0
DWIDTH 9 0
BBX 2 18 4 0
BITMAP
C0
C0
C0
C0
C0
C0
C0
C0
C0
C0
C0
C0
00
00
C0
C0
C0
C0
ENDCHAR
STARTCHAR ASCII CHARACTER "
ENCODING 34
SWIDTH 375 0
DWIDTH 9 0
BBX 5 8 2 10
BITMAP
D8
D8
D8
D8
D8
D8
D8
D8
ENDCHAR
STARTCHAR ASCII CHARACTER #
ENCODING 35
SWIDTH 375 0
DWIDTH 9 0
BBX 7 16 1 2
BITMAP
44
44
44
44
FE
FE
44
44
44
44
FE
FE
44
44
44
44
ENDCHAR
STARTCHAR ASCII CHARACTER $
ENCODING 36
SWIDTH 375 0
DWIDTH 9 0
BBX 7 18 1 0
BITMAP
10
10
7C
7C
D6
D6
D0
D0
7C
7C
16
16
D6
D6
7C
7C
10
10
ENDCHAR
STARTCHAR ASCII CHARACTER %
ENCODING 37
SWIDTH 375 0
DWIDTH 9 0
BBX 8 18 1 0
BITMAP
60
60
93
93
96
96
6C
6C
18
18
36
36
69
69
C9
C9
06
06
ENDCHAR
STARTCHAR ASCII CHARACTER &
ENCODING 38
SWIDTH 375 0
DWIDTH 9 0
BBX 8 18 1 0
BITMAP
78
78
CC
CC
CC
CC
78
78
73
73
DA
DA
CC
CC
C6
C6
7B
7B
ENDCHAR
STARTCHAR ASCII CHARACTER '
ENCODING 39
SWIDTH 375 0
DWIDTH 9 0
BBX 2 8 4 10
BITMAP
C0
C0
C0
C0
C0
C0
C0
C0
ENDCHAR
STARTCHAR ASCII CHARACTER (
ENCODING 40
SWIDTH 375 0
DWIDTH 9 0
BBX 4 20 3 -2
BITMAP
30
30
60
60
60
60
C0
C0
C0
C0
C0
C0
C0
C0
60
60
60
60
30
30
ENDCHAR
STARTCHAR ASCII CHARACTER )
ENCODING 41
SWIDTH 375 0
DWIDTH 9 0
BBX 4 20 2 -2
BITMAP
C0
C0
60
60
60
60
30
30
30
30
30
30
30
30
60
60
60
60
C0
C0
ENDCHAR
STARTCHAR ASCII CHARACTER *
ENCODING 42
SWIDTH 375 0
DWIDTH 9 0
BBX 7 10 1 4
BITMAP
44
44
28
28
FE
FE
28
28
44
44
ENDCHAR
STARTCHAR ASCII CHARACTER +
ENCODING 43
SWIDTH 375 0
DWIDTH 9 0
BBX 8 14 1 2
BITMAP
18
18
18
18
18
18
FF
FF
18
18
18
18
18
18
ENDCHAR
STARTCHAR ASCII CHARACTER ,
ENCODING 44
SWIDTH 375 0
DWIDTH 9 0
BBX 3 8 3 -4
BITMAP
E0
E0
60
60
60
60
C0
C0
ENDCHAR
STARTCHAR ASCII CHARACTER -
ENCODING 45
SWIDTH 375 0
DWIDTH 9 0
BBX 7 2 1 8
BITMAP
FE
FE
ENDCHAR
STARTCHAR ASCII CHARACTER .
ENCODING 46
SWIDTH 375 0
DWIDTH 9 0
BBX 3 4 3 0
BITMAP
E0
E0
E0
E0
ENDCHAR
STARTCHAR ASCII CHARACTER /
ENCODING 47
SWIDTH 375 0
DWIDTH 9 0
BBX 6 20 2 -2
BITMAP
0C
0C
0C
0C
18
18
18
18
30
30
30
30
60
60
60
60
C0
C0
C0
C0
ENDCHAR
STARTCHAR ASCII CHARACTER 0
ENCODING 48
SWIDTH 375 0
DWIDTH 9 0
BBX 7 18 1 0
BITMAP
7C
7C
C6
C6
C6
C6
CE
CE
D6
D6
E6
E6
C6
C6
C6
C6
7C
7C
ENDCHAR
STARTCHAR ASCII CHARACTER 1
ENCODING 49
SWIDTH 375 0
DWIDTH 9 0
BBX 6 18 2 0
BITMAP
30
30
70
70
F0
F0
30
30
30
30
30
30
30
30
30
30
FC
FC
ENDCHAR
STARTCHAR ASCII CHARACTER 2
ENCODING 50
SWIDTH 375 0
DWIDTH 9 0
BBX 7 18 1 0
BITMAP
7C
7C
C6
C6
C6
C6
06
06
0C
0C
38
38
60
60
C0
C0
FE
FE
ENDCHAR
STARTCHAR ASCII CHARACTER 3
ENCODING 51
SWIDTH 375 0
DWIDTH 9 0
BBX 7 18 1 0
BITMAP
7C
7C
C6
C6
06
06
06
06
3C
3C
06
06
06
06
C6
C6
7C
7C
ENDCHAR
STARTCHAR ASCII CHARACTER 4
ENCODING 52
SWIDTH 375 0
DWIDTH 9 0
BBX 8 18 1 0
BITMAP
06
06
0E
0E
1A
1A
36
36
66
66
C6
C6
FF
FF
06
06
06
06
ENDCHAR
STARTCHAR ASCII CHARACTER 5
ENCODING 53
SWIDTH 375 0
DWIDTH 9 0
BBX 7 18 1 0
BITMAP
FE
FE
C0
C0
C0
C0
FC
FC
06
06
06
06
06
06
C6
C6
7C
7C
ENDCHAR
STARTCHAR ASCII CHARACTER 6
ENCODING 54
SWIDTH 375 0
DWIDTH 9 0
BBX 7 18 1 0
BITMAP
1C
1C
30
30
60
60
C0
C0
FC
FC
C6
C6
C6
C6
C6
C6
7C
7C
ENDCHAR
STARTCHAR ASCII CHARACTER 7
ENCODING 55
SWIDTH 375 0
DWIDTH 9 0
BBX 7 18 1 0
BITMAP
FE
FE
06
06
06
06
0C
0C
18
18
30
30
60
60
60
60
60
60
ENDCHAR
STARTCHAR ASCII CHARACTER 8
ENCODING 56
SWIDTH 375 0
DWIDTH 9 0
BBX 7 18 1 0
BITMAP
7C
7C
C6
C6
C6
C6
C6
C6
7C
7C
C6
C6
C6
C6
C6
C6
7C
7C
ENDCHAR
STARTCHAR ASCII CHARACTER 9
ENCODING 57
SWIDTH 375 0
DWIDTH 9 0
BBX 7 18 1 0
BITMAP
7C
7C
C6
C6
C6
C6
C6
C6
7E
7E
06
06
0C
0C
18
18
70
70
ENDCHAR
STARTCHAR ASCII CHARACTER :
ENCODING 58
SWIDTH 375 0
DWIDTH 9 0
BBX 3 12 3 0
BITMAP
E0
E0
E0
E0
00
00
00
00
E0
E0
E0
E0
ENDCHAR
STARTCHAR ASCII CHARACTER ;
ENCODING 59
SWIDTH 375 0
DWIDTH 9 0
BBX 3 16 3 -4
BITMAP
E0
E0
E0
E0
00
00
00
00
E0
E0
60
60
60
60
C0
C0
ENDCHAR
STARTCHAR ASCII CHARACTER <
ENCODING 60
SWIDTH 375 0
DWIDTH 9 0
BBX 6 18 1 0
BITMAP
0C
0C
18
18
30
30
60
60
C0
C0
60
60
30
30
18
18
0C
0C
ENDCHAR
STARTCHAR ASCII CHARACTER =
ENCODING 61
SWIDTH 375 0
DWIDTH 9 0
BBX 7 6 1 6
BITMAP
FE
FE
00
00
FE
FE
ENDCHAR
STARTCHAR ASCII CHARACTER >
ENCODING 62
SWIDTH 375 0
DWIDTH 9 0
BBX 6 18 2 0
BITMAP
C0
C0
60
60
30
30
18
18
0C
0C
18
18
30
30
60
60
C0
C0
ENDCHAR
STARTCHAR ASCII CHARACTER ?
ENCODING 63
SWIDTH 375 0
DWIDTH 9 0
BBX 7 18 1 0
BITMAP
7C
7C
C6
C6
C6
C6
0C
0C
18
18
18
18
00
00
18
18
18
18
ENDCHAR
STARTCHAR ASCII CHARACTER @
ENCODING 64
SWIDTH 375 0
DWIDTH 9 0
BBX 7 18 1 0
BITMAP
78
78
84
84
9C
9C
A4
A4
A4
A4
A4
A4
9E
9E
80
80
78
78
ENDCHAR
STARTCHAR ASCII CHARACTER A
ENCODING 65
SWIDTH 375 0
DWIDTH 9 0
BBX 7 18 1 0
BITMAP
38
38
6C
6C
C6
C6
C6
C6
C6
C6
FE
FE
C6
C6
C6
C6
C6
C6
ENDCHAR
STARTCHAR ASCII CHARACTER B
ENCODING 66
SWIDTH 375 0
DWIDTH 9 0
BBX 7 18 1 0
BITMAP
F8
F8
CC
CC
CC
CC
CC
CC
FC
FC
C6
C6
C6
C6
C6
C6
FC
FC
ENDCHAR
STARTCHAR ASCII CHARACTER C
ENCODING 67
SWIDTH 375 0
DWIDTH 9 0
BBX 7 18 1 0
BITMAP
7C
7C
C6
C6
C6
C6
C0
C0
C0
C0
C0
C0
C6
C6
C6
C6
7C
7C
ENDCHAR
STARTCHAR ASCII CHARACTER D
ENCODING 68
SWIDTH 375 0
DWIDTH 9 0
BBX 7 18 1 0
BITMAP
F8
F8
CC
CC
C6
C6
C6
C6
C6
C6
C6
C6
C6
C6
CC
CC
F8
F8
ENDCHAR
STARTCHAR ASCII CHARACTER E
ENCODING 69
SWIDTH 375 0
DWIDTH 9 0
BBX 6 18 2 0
BITMAP
FC
FC
C0
C0
C0
C0
C0
C0
F8
F8
C0
C0
C0
C0
C0
C0
FC
FC
ENDCHAR
STARTCHAR ASCII CHARACTER F
ENCODING 70
SWIDTH 375 0
DWIDTH 9 0
BBX 6 18 2 0
BITMAP
FC
FC
C0
C0
C0
C0
C0
C0
F8
F8
C0
C0
C0
C0
C0
C0
C0
C0
ENDCHAR
STARTCHAR ASCII CHARACTER G
ENCODING 71
SWIDTH 375 0
DWIDTH 9 0
BBX 7 18 1 0
BITMAP
7C
7C
C6
C6
C6
C6
C0
C0
C0
C0
CE
CE
C6
C6
C6
C6
7A
7A
ENDCHAR
STARTCHAR ASCII CHARACTER H
ENCODING 72
SWIDTH 375 0
DWIDTH 9 0
BBX 7 18 1 0
BITMAP
C6
C6
C6
C6
C6
C6
C6
C6
FE
FE
C6
C6
C6
C6
C6
C6
C6
C6
ENDCHAR
STARTCHAR ASCII CHARACTER I
ENCODING 73
SWIDTH 375 0
DWIDTH 9 0
BBX 4 18 3 0
BITMAP
F0
F0
60
60
60
60
60
60
60
60
60
60
60
60
60
60
F0
F0
ENDCHAR
STARTCHAR ASCII CHARACTER J
ENCODING 74
SWIDTH 375 0
DWIDTH 9 0
BBX 7 18 1 0
BITMAP
06
06
06
06
06
06
06
06
06
06
C6
C6
C6
C6
C6
C6
7C
7C
ENDCHAR
STARTCHAR ASCII CHARACTER K
ENCODING 75
SWIDTH 375 0
DWIDTH 9 0
BBX 8 18 1 0
BITMAP
C6
C6
CC
CC
D8
D8
F0
F0
F0
F0
D8
D8
CC
CC
C6
C6
C3
C3
ENDCHAR
STARTCHAR ASCII CHARACTER L
ENCODING 76
SWIDTH 375 0
DWIDTH 9 0
BBX 6 18 2 0
BITMAP
C0
C0
C0
C0
C0
C0
C0
C0
C0
C0
C0
C0
C0
C0
C0
C0
FC
FC
ENDCHAR
STARTCHAR ASCII CHARACTER M
ENCODING 77
SWIDTH 375 0
DWIDTH 9 0
BBX 7 18 1 0
BITMAP
82
82
C6
C6
EE
EE
D6
D6
D6
D6
D6
D6
C6
C6
C6
C6
C6
C6
ENDCHAR
STARTCHAR ASCII CHARACTER N
ENCODING 78
SWIDTH 375 0
DWIDTH 9 0
BBX 7 18 1 0
BITMAP
C6
C6
E6
E6
B6
B6
DA
DA
CE
CE
C6
C6
C6
C6
C6
C6
C6
C6
ENDCHAR
STARTCHAR ASCII CHARACTER O
ENCODING 79
SWIDTH 375 0
DWIDTH 9 0
BBX 7 18 1 0
BITMAP
7C
7C
C6
C6
C6
C6
C6
C6
C6
C6
C6
C6
C6
C6
C6
C6
7C
7C
ENDCHAR
STARTCHAR ASCII CHARACTER P
ENCODING 80
SWIDTH 375 0
DWIDTH 9 0
BBX 7 18 1 0
BITMAP
FC
FC
C6
C6
C6
C6
C6
C6
C6
C6
FC
FC
C0
C0
C0
C0
C0
C0
ENDCHAR
STARTCHAR ASCII CHARACTER Q
ENCODING 81
SWIDTH 375 0
DWIDTH 9 0
BBX 7 20 1 -2
BITMAP
7C
7C
C6
C6
C6
C6
C6
C6
C6
C6
C6
C6
F6
F6
DC
DC
7C
7C
06
06
ENDCHAR
STARTCHAR ASCII CHARACTER R
ENCODING 82
SWIDTH 375 0
DWIDTH 9 0
BBX 8 18 1 0
BITMAP
FC
FC
C6
C6
C6
C6
C6
C6
FC
FC
D8
D8
CC
CC
C6
C6
C3
C3
ENDCHAR
STARTCHAR ASCII CHARACTER S
ENCODING 83
SWIDTH 375 0
DWIDTH 9 0
BBX 7 18 1 0
BITMAP
7C
7C
C6
C6
C6
C6
60
60
38
38
0C
0C
C6
C6
C6
C6
7C
7C
ENDCHAR
STARTCHAR ASCII CHARACTER T
ENCODING 84
SWIDTH 375 0
DWIDTH 9 0
BBX 8 18 1 0
BITMAP
FF
FF
18
18
18
18
18
18
18
18
18
18
18
18
18
18
18
18
ENDCHAR
STARTCHAR ASCII CHARACTER U
ENCODING 85
SWIDTH 375 0
DWIDTH 9 0
BBX 7 18 1 0
BITMAP
C6
C6
C6
C6
C6
C6
C6
C6
C6
C6
C6
C6
C6
C6
C6
C6
7C
7C
ENDCHAR
STARTCHAR ASCII CHARACTER V
ENCODING 86
SWIDTH 375 0
DWIDTH 9 0
BBX 7 18 1 0
BITMAP
C6
C6
C6
C6
C6
C6
C6
C6
C6
C6
C6
C6
6C
6C
38
38
10
10
ENDCHAR
STARTCHAR ASCII CHARACTER W
ENCODING 87
SWIDTH 375 0
DWIDTH 9 0
BBX 7 18 1 0
BITMAP
C6
C6
C6
C6
C6
C6
D6
D6
D6
D6
FE
FE
EE
EE
C6
C6
82
82
ENDCHAR
STARTCHAR ASCII CHARACTER X
ENCODING 88
SWIDTH 375 0
DWIDTH 9 0
BBX 7 18 1 0
BITMAP
C6
C6
C6
C6
C6
C6
6C
6C
38
38
6C
6C
C6
C6
C6
C6
C6
C6
ENDCHAR
STARTCHAR ASCII CHARACTER Y
ENCODING 89
SWIDTH 375 0
DWIDTH 9 0
BBX 8 18 1 0
BITMAP
C3
C3
C3
C3
C3
C3
66
66
3C
3C
18
18
18
18
18
18
18
18
ENDCHAR
STARTCHAR ASCII CHARACTER Z
ENCODING 90
SWIDTH 375 0
DWIDTH 9 0
BBX 7 18 1 0
BITMAP
FE
FE
06
06
0C
0C
18
18
30
30
60
60
C0
C0
C0
C0
FE
FE
ENDCHAR
STARTCHAR ASCII CHARACTER [
ENCODING 91
SWIDTH 375 0
DWIDTH 9 0
BBX 5 20 3 -2
BITMAP
F8
F8
C0
C0
C0
C0
C0
C0
C0
C0
C0
C0
C0
C0
C0
C0
C0
C0
F8
F8
ENDCHAR
STARTCHAR ASCII CHARACTER \
ENCODING 92
SWIDTH 375 0
DWIDTH 9 0
BBX 6 20 2 -2
BITMAP
C0
C0
C0
C0
60
60
60
60
30
30
30
30
18
18
18
18
0C
0C
0C
0C
ENDCHAR
STARTCHAR ASCII CHARACTER ]
ENCODING 93
SWIDTH 375 0
DWIDTH 9 0
BBX 5 20 1 -2
BITMAP
F8
F8
18
18
18
18
18
18
18
18
18
18
18
18
18
18
18
18
F8
F8
ENDCHAR
STARTCHAR ASCII CHARACTER ^
ENCODING 94
SWIDTH 375 0
DWIDTH 9 0
BBX 7 8 1 10
BITMAP
10
10
38
38
6C
6C
C6
C6
ENDCHAR
STARTCHAR ASCII CHARACTER _
ENCODING 95
SWIDTH 375 0
DWIDTH 9 0
BBX 9 2 0 -2
BITMAP
FF80
FF80
ENDCHAR
STARTCHAR ASCII CHARACTER `
ENCODING 96
SWIDTH 375 0
DWIDTH 9 0
BBX 5 8 2 10
BITMAP
C0
C0
60
60
30
30
18
18
ENDCHAR
STARTCHAR ASCII CHARACTER a
ENCODING 97
SWIDTH 375 0
DWIDTH 9 0
BBX 8 12 1 0
BITMAP
7C
7C
06
06
7E
7E
C6
C6
C6
C6
7B
7B
ENDCHAR
STARTCHAR ASCII CHARACTER b
ENCODING 98
SWIDTH 375 0
DWIDTH 9 0
BBX 7 18 1 0
BITMAP
C0
C0
C0
C0
C0
C0
DC
DC
E6
E6
C6
C6
C6
C6
C6
C6
FC
FC
ENDCHAR
STARTCHAR ASCII CHARACTER c
ENCODING 99
SWIDTH 375 0
DWIDTH 9 0
BBX 7 12 1 0
BITMAP
7C
7C
C6
C6
C0
C0
C0
C0
C6
C6
7C
7C
ENDCHAR
STARTCHAR ASCII CHARACTER d
ENCODING 100
SWIDTH 375 0
DWIDTH 9 0
BBX 7 18 1 0
BITMAP
06
06
06
06
06
06
7E
7E
C6
C6
C6
C6
C6
C6
CE
CE
76
76
ENDCHAR
STARTCHAR ASCII CHARACTER e
ENCODING 101
SWIDTH 375 0
DWIDTH 9 0
BBX 7 12 1 0
BITMAP
7C
7C
C6
C6
FE
FE
C0
C0
C6
C6
7C
7C
ENDCHAR
STARTCHAR ASCII CHARACTER f
ENCODING 102
SWIDTH 375 0
DWIDTH 9 0
BBX 7 18 2 0
BITMAP
3C
3C
66
66
60
60
60
60
FC
FC
60
60
60
60
60
60
F0
F0
ENDCHAR
STARTCHAR ASCII CHARACTER g
ENCODING 103
SWIDTH 375 0
DWIDTH 9 0
BBX 7 16 1 -4
BITMAP
7E
7E
C6
C6
C6
C6
CE
CE
76
76
06
06
C6
C6
7C
7C
ENDCHAR
STARTCHAR ASCII CHARACTER h
ENCODING 104
SWIDTH 375 0
DWIDTH 9 0
BBX 7 18 1 0
BITMAP
C0
C0
C0
C0
C0
C0
DC
DC
E6
E6
C6
C6
C6
C6
C6
C6
C6
C6
ENDCHAR
STARTCHAR ASCII CHARACTER i
ENCODING 105
SWIDTH 375 0
DWIDTH 9 0
BBX 7 18 1 0
BITMAP
18
18
18
18
00
00
78
78
18
18
18
18
18
18
18
18
FE
FE
ENDCHAR
STARTCHAR ASCII CHARACTER j
ENCODING 106
SWIDTH 375 0
DWIDTH 9 0
BBX 6 22 1 -4
BITMAP
0C
0C
0C
0C
00
00
3C
3C
0C
0C
0C
0C
0C
0C
0C
0C
0C
0C
CC
CC
78
78
ENDCHAR
STARTCHAR ASCII CHARACTER k
ENCODING 107
SWIDTH 375 0
DWIDTH 9 0
BBX 7 18 1 0
BITMAP
C0
C0
C0
C0
C0
C0
C6
C6
CC
CC
D8
D8
F8
F8
CC
CC
C6
C6
ENDCHAR
STARTCHAR ASCII CHARACTER l
ENCODING 108
SWIDTH 375 0
DWIDTH 9 0
BBX 7 18 1 0
BITMAP
78
78
18
18
18
18
18
18
18
18
18
18
18
18
18
18
FE
FE
ENDCHAR
STARTCHAR ASCII CHARACTER m
ENCODING 109
SWIDTH 375 0
DWIDTH 9 0
BBX 7 12 1 0
BITMAP
EC
EC
D6
D6
D6
D6
D6
D6
D6
D6
D6
D6
ENDCHAR
STARTCHAR ASCII CHARACTER n
ENCODING 110
SWIDTH 375 0
DWIDTH 9 0
BBX 7 12 1 0
BITMAP
DC
DC
E6
E6
C6
C6
C6
C6
C6
C6
C6
C6
ENDCHAR
STARTCHAR ASCII CHARACTER o
ENCODING 111
SWIDTH 375 0
DWIDTH 9 0
BBX 7 12 1 0
BITMAP
7C
7C
C6
C6
C6
C6
C6
C6
C6
C6
7C
7C
ENDCHAR
STARTCHAR ASCII CHARACTER p
ENCODING 112
SWIDTH 375 0
DWIDTH 9 0
BBX 7 16 1 -4
BITMAP
DC
DC
E6
E6
C6
C6
C6
C6
C6
C6
FC
FC
C0
C0
C0
C0
ENDCHAR
STARTCHAR ASCII CHARACTER q
ENCODING 113
SWIDTH 375 0
DWIDTH 9 0
BBX 7 16 1 -4
BITMAP
7E
7E
C6
C6
C6
C6
C6
C6
CE
CE
76
76
06
06
06
06
ENDCHAR
STARTCHAR ASCII CHARACTER r
ENCODING 114
SWIDTH 375 0
DWIDTH 9 0
BBX 7 12 1 0
BITMAP
EC
EC
76
76
66
66
60
60
60
60
F0
F0
ENDCHAR
STARTCHAR ASCII CHARACTER s
ENCODING 115
SWIDTH 375 0
DWIDTH 9 0
BBX 7 12 1 0
BITMAP
7C
7C
C6
C6
70
70
1C
1C
C6
C6
7C
7C
ENDCHAR
STARTCHAR ASCII CHARACTER t
ENCODING 116
SWIDTH 375 0
DWIDTH 9 0
BBX 7 16 1 0
BITMAP
20
20
60
60
FC
FC
60
60
60
60
60
60
66
66
3C
3C
ENDCHAR
STARTCHAR ASCII CHARACTER u
ENCODING 117
SWIDTH 375 0
DWIDTH 9 0
BBX 7 12 1 0
BITMAP
C6
C6
C6
C6
C6
C6
C6
C6
CE
CE
76
76
ENDCHAR
STARTCHAR ASCII CHARACTER v
ENCODING 118
SWIDTH 375 0
DWIDTH 9 0
BBX 7 12 1 0
BITMAP
C6
C6
C6
C6
C6
C6
6C
6C
38
38
10
10
ENDCHAR
STARTCHAR ASCII CHARACTER w
ENCODING 119
SWIDTH 375 0
DWIDTH 9 0
BBX 7 12 1 0
BITMAP
C6
C6
C6
C6
D6
D6
D6
D6
EE
EE
C6
C6
ENDCHAR
STARTCHAR ASCII CHARACTER x
ENCODING 120
SWIDTH 375 0
DWIDTH 9 0
BBX 7 12 1 0
BITMAP
C6
C6
6C
6C
38
38
38
38
6C
6C
C6
C6
ENDCHAR
STARTCHAR ASCII CHARACTER y
ENCODING 121
SWIDTH 375 0
DWIDTH 9 0
BBX 7 16 1 -4
BITMAP
C6
C6
C6
C6
C6
C6
C6
C6
6C
6C
38
38
30
30
E0
E0
ENDCHAR
STARTCHAR ASCII CHARACTER z
ENCODING 122
SWIDTH 375 0
DWIDTH 9 0
BBX 7 12 1 0
BITMAP
FC
FC
18
18
30
30
60
60
C0
C0
FE
FE
ENDCHAR
STARTCHAR ASCII CHARACTER {
ENCODING 123
SWIDTH 375 0
DWIDTH 9 0
BBX 6 20 2 -2
BITMAP
1C
1C
30
30
30
30
30
30
E0
E0
20
20
30
30
30
30
30
30
1C
1C
ENDCHAR
STARTCHAR ASCII CHARACTER |
ENCODING 124
SWIDTH 375 0
DWIDTH 9 0
BBX 2 22 4 -4
BITMAP
C0
C0
C0
C0
C0
C0
C0
C0
C0
C0
00
00
C0
C0
C0
C0
C0
C0
C0
C0
C0
C0
ENDCHAR
STARTCHAR ASCII CHARACTER }
ENCODING 125
SWIDTH 375 0
DWIDTH 9 0
BBX 6 20 1 -2
BITMAP
E0
E0
30
30
30
30
30
30
1C
1C
10
10
30
30
30
30
30
30
E0
E0
ENDCHAR
STARTCHAR ASCII CHARACTER ~
ENCODING 126
SWIDTH 375 0
DWIDTH 9 0
BBX 8 6 1 6
BITMAP
73
73
DB
DB
CE
CE
ENDCHAR
STARTCHAR ASCII CHARACTER 
ENCODING 127
SWIDTH 375 0
DWIDTH 9 0
BBX 9 24 0 -4
BITMAP
FF80
FF80
FF80
FF80
FF80
FF80
FF80
FF80
FF80
FF80
FF80
FF80
FF80
FF80
FF80
FF80
FF80
FF80
FF80
FF80
FF80
FF80
FF80
FF80
ENDCHAR
ENDFONT
